# xmcd
#
# Track frame offsets:
#	150
#	21942
#	49259
#	75953
#	115866
#	137490
#	158183
#	177891
#	209099
#	230141
#	245837
#
# Disc length: 3411 seconds
#
# Revision: 1
# Processed by: cddbd v1.5.2PL0 Copyright (c) Steve Scherf et al.
# Submitted via: audiograbber 1.83.01
#
DISCID=960d510b
DTITLE=Kelly Joe Phelps - Roll Away the Stone
DYEAR=1997
DGENRE=Blues
TTITLE0=Roll Away the Stone
TTITLE1=Sail the Jordan
TTITLE2=When the Roll is Called Up Yonder
TTITLE3=Hosanna
TTITLE4=Without the Light
TTITLE5=Footprints
TTITLE6=Go There
TTITLE7=See That My Grave Is Kept Clean
TTITLE8=Cypress Grove
TTITLE9=That's Alright
TTITLE10=Doxology
EXTD=
EXTT0=
EXTT1=
EXTT2=
EXTT3=
EXTT4=
EXTT5=
EXTT6=
EXTT7=
EXTT8=
EXTT9=
EXTT10=
PLAYORDER=
